<?xml version="1.0" encoding="UTF-8" standalone="no"?>
<svg
   enable-background="new 0 0 32 32"
   height="32px"
   id="Layer_1"
   version="1.1"
   viewBox="0 0 32 32"
   width="32px"
   xml:space="preserve"
   xmlns="http://www.w3.org/2000/svg"
   xmlns:svg="http://www.w3.org/2000/svg"><defs
     id="defs7" /><path
     d="M 30.520925,1.6118497 30.387856,1.4776025 c -1.971314,-1.97013665 -5.175583,-1.97013665 -7.14572,0 l -7.010294,7.0102949 c -1.435504,1.4343253 -1.812338,3.5233996 -1.155233,5.3157176 l -1.272994,1.272994 c -1.79114,-0.657105 -3.8802147,-0.280271 -5.3157176,1.155233 l -7.0102949,7.011472 c -1.97013665,1.968959 -1.97013665,5.175583 0,7.144542 l 0.1342472,0.135424 c 1.9701366,1.96896 5.175583,1.96896 7.144542,0 l 7.0102943,-7.011472 c 1.435504,-1.436681 1.812338,-3.524577 1.156411,-5.316895 l 1.271816,-1.271816 c 1.79114,0.655927 3.880214,0.279093 5.315718,-1.155233 l 7.010294,-7.0114723 c 1.971315,-1.968959 1.971315,-5.1744054 0,-7.144542 z M 6.9228575,27.987893 c -0.7689773,0.7678 -2.0207737,0.7678 -2.7909287,0 L 4.0106352,27.866599 c -0.7689774,-0.768977 -0.7689774,-2.024307 0,-2.790929 l 4.9165096,-4.916509 c -0.368591,0.811371 -0.2261005,1.805272 0.440425,2.471797 0.6665262,0.665348 1.6604252,0.809016 2.4729742,0.439247 z M 27.987893,6.9228575 23.119665,11.791085 C 23.487079,10.978536 23.34341,9.9869911 22.678062,9.3204656 22.012715,8.6539399 21.019992,8.5114494 20.206265,8.8800405 l 4.868228,-4.8694053 c 0.768977,-0.7689774 2.021951,-0.7689774 2.792106,0 l 0.121294,0.1212936 c 0.768977,0.7713326 0.768977,2.0231289 0,2.7909287 z"
     fill="#515151"
     id="path2"
     style="stroke-width:1;fill:#424242;fill-opacity:1" /></svg>
