<?xml version="1.0" encoding="UTF-8" standalone="no"?>
<!-- Created with Inkscape (http://www.inkscape.org/) -->

<svg
   width="16"
   height="16"
   viewBox="0 0 16 16"
   version="1.1"
   id="SVGRoot"
   sodipodi:docname="C:\Users\fils\AppData\Local\Temp\ink_ext_XXXXXX.svgQT00U1"
   inkscape:export-filename="Redo.svg"
   inkscape:export-xdpi="192"
   inkscape:export-ydpi="192"
   xmlns:inkscape="http://www.inkscape.org/namespaces/inkscape"
   xmlns:sodipodi="http://sodipodi.sourceforge.net/DTD/sodipodi-0.dtd"
   xmlns="http://www.w3.org/2000/svg"
   xmlns:svg="http://www.w3.org/2000/svg">
  <sodipodi:namedview
     id="namedview354"
     pagecolor="#ffffff"
     bordercolor="#666666"
     borderopacity="1.0"
     inkscape:showpageshadow="2"
     inkscape:pageopacity="0.0"
     inkscape:pagecheckerboard="0"
     inkscape:deskcolor="#d1d1d1"
     inkscape:document-units="px"
     showgrid="true"
     inkscape:zoom="32.897369"
     inkscape:cx="6.8698503"
     inkscape:cy="8.9216861"
     inkscape:window-width="1920"
     inkscape:window-height="996"
     inkscape:window-x="-8"
     inkscape:window-y="-8"
     inkscape:window-maximized="1"
     inkscape:current-layer="layer1">
    <inkscape:grid
       type="xygrid"
       id="grid477" />
  </sodipodi:namedview>
  <defs
     id="defs349" />
  <g
     inkscape:label="Layer 1"
     inkscape:groupmode="layer"
     id="layer1">
    <path
       style="fill:#404040;fill-opacity:1;stroke-width:1"
       d="m 15.015186,15.359833 c -0.117707,0.04245 -1.640848,0.02247 -2.060108,-0.02705 C 10.902843,15.090423 9.5897581,14.240908 8.7861437,12.635652 8.1729613,11.410794 7.8574015,9.7063733 7.8199113,7.4167861 L 7.8102913,6.8298626 9.269671,6.8139986 c 1.396798,-0.015185 1.463008,-0.018581 1.543947,-0.079306 0.04651,-0.034893 0.107201,-0.1013383 0.134832,-0.1476592 0.06743,-0.1129642 0.06453,-0.3690556 -0.0055,-0.477473 C 10.91259,6.0623744 9.8538852,4.7030559 8.5903444,3.0888569 6.9075503,0.93905091 6.2655164,0.14090691 6.1902648,0.10519891 c -0.1278005,-0.06065 -0.2693569,-0.06214 -0.4077865,-0.0042 -0.08402,0.0351 -0.5948523,0.66615 -2.4295911,3.00137399 -1.2777612,1.626311 -2.3429091,2.9947014 -2.36699527,3.0408636 -0.0963929,0.1847459 -0.029939,0.4669724 0.13928747,0.5915441 0.082855,0.060999 0.1434833,0.063796 1.565056,0.072272 l 1.4788603,0.00882 0.019901,0.1656625 c 0.010953,0.09111 0.020127,0.3441199 0.020404,0.5622336 0.00136,1.0823766 0.1749357,2.5044653 0.4290917,3.5157403 1.0779555,4.289137 4.1255206,5.796419 9.3129436,4.60605 0.490184,-0.112492 1.076787,-0.274481 1.103915,-0.304858 0.01109,-0.01233 -0.0071,-0.01274 -0.04015,-7.63e-4 z"
       id="path300" />
  </g>
</svg>
