<?xml version="1.0" encoding="UTF-8" standalone="no"?>
<!-- Created with Inkscape (http://www.inkscape.org/) -->

<svg
   width="16"
   height="16"
   viewBox="0 0 16 16"
   version="1.1"
   id="SVGRoot"
   sodipodi:docname="C:\Users\fils\AppData\Local\Temp\ink_ext_XXXXXX.svgQT00U1"
   inkscape:export-filename="Undo.svg"
   inkscape:export-xdpi="192"
   inkscape:export-ydpi="192"
   xmlns:inkscape="http://www.inkscape.org/namespaces/inkscape"
   xmlns:sodipodi="http://sodipodi.sourceforge.net/DTD/sodipodi-0.dtd"
   xmlns="http://www.w3.org/2000/svg"
   xmlns:svg="http://www.w3.org/2000/svg">
  <sodipodi:namedview
     id="namedview354"
     pagecolor="#ffffff"
     bordercolor="#666666"
     borderopacity="1.0"
     inkscape:showpageshadow="2"
     inkscape:pageopacity="0.0"
     inkscape:pagecheckerboard="0"
     inkscape:deskcolor="#d1d1d1"
     inkscape:document-units="px"
     showgrid="true"
     inkscape:zoom="32.897369"
     inkscape:cx="6.8698503"
     inkscape:cy="8.9216861"
     inkscape:window-width="1920"
     inkscape:window-height="996"
     inkscape:window-x="-8"
     inkscape:window-y="-8"
     inkscape:window-maximized="1"
     inkscape:current-layer="layer1">
    <inkscape:grid
       type="xygrid"
       id="grid477" />
  </sodipodi:namedview>
  <defs
     id="defs349" />
  <g
     inkscape:label="Layer 1"
     inkscape:groupmode="layer"
     id="layer1">
    <path
       style="fill:#404040;fill-opacity:1;stroke-width:1"
       d="m 0.69877413,15.073788 c -0.04245,-0.117707 -0.02247,-1.640848 0.02705,-2.060108 C 0.96818413,10.961445 1.8176991,9.6483602 3.4229551,8.8447458 4.6478131,8.2315634 6.3522336,7.9160036 8.6418208,7.8785134 l 0.5869235,-0.00962 0.015864,1.4593797 c 0.015185,1.3967979 0.018581,1.4630079 0.079306,1.5439469 0.034893,0.04651 0.1013383,0.107201 0.1476592,0.134832 0.1129642,0.06743 0.3690556,0.06453 0.477473,-0.0055 0.047186,-0.03036 1.4065045,-1.0890647 3.0207035,-2.3526055 2.149806,-1.6827941 2.94795,-2.324828 2.983658,-2.4000796 0.06065,-0.1278005 0.06214,-0.2693569 0.0042,-0.4077865 C 15.922508,5.75706 15.291458,5.2462281 12.956234,3.4114893 11.329923,2.1337281 9.9615326,1.0685802 9.9153704,1.044494 9.7306245,0.9481011 9.448398,1.014555 9.3238263,1.1837815 c -0.060999,0.082855 -0.063796,0.1434833 -0.072272,1.565056 l -0.00882,1.4788603 -0.1656625,0.019901 C 8.9859618,4.2585518 8.7329519,4.2677258 8.5148382,4.2680028 7.4324616,4.2693628 6.0103728,4.4429385 4.9990981,4.6970945 0.70996113,5.77505 -0.79732087,8.8226151 0.39304813,14.010038 c 0.112492,0.490184 0.274481,1.076787 0.304858,1.103915 0.01233,0.01109 0.01274,-0.0071 7.63e-4,-0.04015 z"
       id="path300" />
  </g>
</svg>
