<?xml version="1.0" encoding="UTF-8" standalone="no"?>
<!-- Created with Inkscape (http://www.inkscape.org/) -->

<svg
   width="16"
   height="16"
   viewBox="0 0 16 16"
   version="1.1"
   id="SVGRoot"
   xmlns="http://www.w3.org/2000/svg"
   xmlns:svg="http://www.w3.org/2000/svg">
  <defs
     id="defs2808" />
  <g
     id="layer1">
    <path
       style="fill:#404040;fill-opacity:1;stroke-width:0.999999"
       d="m 7.38935,15.964558 c -0.025269,-0.04093 -0.042306,-0.02653 0.2200912,-0.186072 0.8142962,-0.495065 1.2512681,-0.9021 1.7107846,-1.59357 0.4627018,-0.696254 0.7835542,-1.543273 0.9591002,-2.531919 0.07688,-0.432795 0.158986,-1.234448 0.158986,-1.551664 V 9.8712755 H 9.3801953 c -1.1081513,0 -1.2175878,-0.01145 -1.3238307,-0.138471 -0.070044,-0.0838 -0.07169,-0.294026 -0.00329,-0.39378 0.159916,-0.232194 3.6271664,-4.6572267 3.7160674,-4.7425824 0.148401,-0.1424823 0.315115,-0.1424823 0.463516,0 0.0889,0.085356 3.556152,4.5103884 3.716068,4.7425824 0.06741,0.09783 0.06848,0.277772 0.0025,0.372306 -0.105724,0.150938 -0.181127,0.159945 -1.339017,0.159945 h -1.079418 v 0.2442385 c 0,0.661566 -0.215037,1.659234 -0.506564,2.350198 -0.765775,1.814992 -2.223414,3.003111 -4.1582165,3.389348 -0.5759981,0.114985 -1.4360081,0.178667 -1.4787506,0.109498 z M 3.7673521,11.395116 C 3.6784514,11.30976 0.21120045,6.8847269 0.0512763,6.6525324 -0.01613382,6.5547005 -0.01720383,6.3747607 0.04880707,6.2802268 0.1545315,6.1292882 0.22993371,6.1202821 1.387824,6.1202821 H 2.467242 V 5.8760435 c 0,-0.1343314 0.020412,-0.3980737 0.045352,-0.5860928 C 2.718281,3.7403791 3.3301822,2.485964 4.341902,1.5398161 5.3223201,0.62293501 6.5079564,0.13312241 8.0187334,0.0208252 8.6472526,-0.02589274 8.7564916,0.00207794 8.5026624,0.14473391 7.1332903,0.91436791 6.3067796,2.0223194 5.8638482,3.6821373 5.7069859,4.2699433 5.5617866,5.3313738 5.5617866,5.8902243 v 0.2300578 h 1.0581167 c 1.1081517,0 1.2175882,0.011449 1.3238312,0.1384706 0.070044,0.083801 0.07169,0.294025 0.00329,0.3937797 C 7.7871086,6.8847269 4.3198577,11.30976 4.230957,11.395116 c -0.083633,0.0803 -0.1322029,0.101589 -0.2317625,0.101589 -0.099551,0 -0.1481212,-0.02129 -0.2317542,-0.101589 z"
       id="path3070" />
  </g>
</svg>
