<?xml version="1.0" encoding="UTF-8" standalone="no"?>
<!-- Created with Inkscape (http://www.inkscape.org/) -->

<svg
   width="15.999999"
   height="15.999999"
   viewBox="0 0 4.233333 4.233333"
   version="1.1"
   id="svg1064"
   xmlns="http://www.w3.org/2000/svg"
   xmlns:svg="http://www.w3.org/2000/svg">
  <defs
     id="defs1061" />
  <g
     id="layer1">
    <g
       aria-label="b"
       id="text12834"
       style="font-weight:bold;font-size:3.175px;line-height:1.25;font-family:'Times New Roman';-inkscape-font-specification:'Times New Roman, Bold';letter-spacing:0px;word-spacing:0px;fill:#404040;stroke-width:0.264583">
      <path
         d="M 0.97355643,0.23098129 V 1.0293822 Q 1.156491,0.84024641 1.373532,0.84024641 q 0.1488281,0 0.280603,0.0883667 0.1317749,0.0868164 0.206189,0.24804689 0.074414,0.1612304 0.074414,0.3720703 0,0.2371948 -0.094568,0.4309814 -0.094568,0.1937866 -0.2526978,0.296106 -0.1581298,0.100769 -0.3612182,0.100769 -0.1178223,0 -0.2092896,-0.037207 Q 0.92549734,2.3021727 0.83713065,2.2184568 L 0.59683524,2.3750364 h -0.05271 V 0.53173812 q 0,-0.12557373 -0.0108521,-0.1550293 -0.0155029,-0.0434082 -0.0496094,-0.063562 -0.0325562,-0.0217041 -0.11162109,-0.0248047 v -0.0573608 z m 0,0.93637691 v 0.6449219 q 0,0.1968872 0.009302,0.2511474 0.0155029,0.091467 0.074414,0.1488282 0.058911,0.05581 0.1503785,0.05581 0.079065,0 0.1348754,-0.044958 0.057361,-0.044958 0.094568,-0.1782837 0.038757,-0.1333252 0.038757,-0.4805908 0,-0.333313 -0.083716,-0.4573364 -0.060461,-0.089917 -0.1627807,-0.089917 -0.1333252,0 -0.25579817,0.1503784 z"
         id="path4963" />
    </g>
    <g
       aria-label="A"
       id="text23842"
       style="font-weight:bold;font-size:3.52778px;line-height:1.25;font-family:'Times New Roman';-inkscape-font-specification:'Times New Roman, Bold';letter-spacing:0px;word-spacing:0px;fill:#404040;stroke-width:0.264583">
      <path
         d="M 3.1598424,3.0296195 H 2.3347415 l -0.098185,0.2273764 q -0.048231,0.1136882 -0.048231,0.1877579 0,0.098185 0.079237,0.1446941 0.046509,0.027561 0.229099,0.041341 v 0.063734 H 1.7197916 V 3.630789 Q 1.8455377,3.611841 1.9264975,3.5274361 2.0074573,3.4413087 2.1263131,3.1743136 L 2.9617493,1.3105157 h 0.032728 L 3.8368041,3.22599 q 0.1205785,0.2721628 0.1980932,0.3427873 0.058567,0.053399 0.1653647,0.062012 v 0.063734 H 3.0702699 V 3.630789 h 0.046509 q 0.1360814,0 0.1912029,-0.037896 0.037896,-0.027561 0.037896,-0.079237 0,-0.031006 -0.010335,-0.063734 -0.00345,-0.015503 -0.051676,-0.1291912 z M 3.1012758,2.9021509 2.7533209,2.0977205 2.3950308,2.9021509 Z"
         id="path4960" />
    </g>
    <g
       id="g2776"
       transform="matrix(-0.00319851,0,0,-0.00391081,1.9777477,4.050349)"
       style="fill:#0000ff;stroke-width:74.8096">
      <path
         d="m 447.9,368.2 c 0,-16.8 3.6,-83.1 -48.7,-135.7 C 364,197.1 318.9,179.1 255.9,176.3 V 96 L 64,224 256,352 v -79.8 c 40,1.1 62.4,9.1 86.7,20 30.9,13.8 55.3,44 75.8,76.6 L 437.7,400 H 448 c 0,-10.1 -0.1,-22.9 -0.1,-31.8 z"
         id="path2774"
         style="fill:#0000ff;stroke-width:74.8096" />
    </g>
  </g>
</svg>
