<?xml version="1.0" encoding="UTF-8" standalone="no"?>
<!-- Created with Inkscape (http://www.inkscape.org/) -->

<svg
   width="16"
   height="16"
   viewBox="0 0 16 16"
   version="1.1"
   id="SVGRoot"
   sodipodi:docname="C:\Users\fils\AppData\Local\Temp\ink_ext_XXXXXX.svgQT00U1"
   inkscape:export-filename="Undo1_32.png"
   inkscape:export-xdpi="192"
   inkscape:export-ydpi="192"
   xmlns:inkscape="http://www.inkscape.org/namespaces/inkscape"
   xmlns:sodipodi="http://sodipodi.sourceforge.net/DTD/sodipodi-0.dtd"
   xmlns="http://www.w3.org/2000/svg"
   xmlns:svg="http://www.w3.org/2000/svg">
  <sodipodi:namedview
     id="namedview354"
     pagecolor="#ffffff"
     bordercolor="#666666"
     borderopacity="1.0"
     inkscape:showpageshadow="2"
     inkscape:pageopacity="0.0"
     inkscape:pagecheckerboard="0"
     inkscape:deskcolor="#d1d1d1"
     inkscape:document-units="px"
     showgrid="true"
     inkscape:zoom="32.897369"
     inkscape:cx="6.8698503"
     inkscape:cy="8.9216861"
     inkscape:window-width="1920"
     inkscape:window-height="996"
     inkscape:window-x="-8"
     inkscape:window-y="-8"
     inkscape:window-maximized="1"
     inkscape:current-layer="layer1">
    <inkscape:grid
       type="xygrid"
       id="grid477" />
  </sodipodi:namedview>
  <defs
     id="defs349" />
  <g
     inkscape:label="Layer 1"
     inkscape:groupmode="layer"
     id="layer1">
    <path
       style="fill:#404040;fill-opacity:1;stroke-width:1"
       d="M 15.30123,15.073788 C 15.34368,14.956081 15.3237,13.43294 15.27418,13.01368 15.03182,10.961445 14.182305,9.6483602 12.577049,8.8447458 11.352191,8.2315634 9.6477705,7.9160036 7.3581833,7.8785134 l -0.5869235,-0.00962 -0.015864,1.4593797 c -0.015185,1.3967979 -0.018581,1.4630079 -0.079306,1.5439469 -0.034893,0.04651 -0.1013383,0.107201 -0.1476592,0.134832 -0.1129642,0.06743 -0.3690556,0.06453 -0.477473,-0.0055 C 6.0037713,10.971196 4.6444532,9.9124873 3.0302541,8.6489465 0.88044821,6.9661524 0.08230428,6.3241185 0.04659625,6.2488669 -0.014049,6.1210664 -0.01554302,5.97951 0.04238563,5.8410804 0.07749602,5.75706 0.70854592,5.2462281 3.0437697,3.4114893 4.6700816,2.1337281 6.0384715,1.0685802 6.0846337,1.044494 6.2693796,0.9481011 6.5516061,1.014555 6.6761778,1.1837815 c 0.060999,0.082855 0.063796,0.1434833 0.072272,1.565056 l 0.00882,1.4788603 0.1656625,0.019901 c 0.09111,0.010953 0.3441199,0.020127 0.5622336,0.020404 1.0823766,0.00136 2.5044654,0.1749357 3.5157401,0.4290917 4.289137,1.0779555 5.796419,4.1255206 4.60605,9.3129435 -0.112492,0.490184 -0.274481,1.076787 -0.304858,1.103915 -0.01233,0.01109 -0.01274,-0.0071 -7.63e-4,-0.04015 z"
       id="path300" />
  </g>
</svg>
